<mxfile host="app.diagrams.net" modified="2024-04-28T05:23:35.186Z" agent="Mozilla/5.0 (X11; Linux x86_64; rv:124.0) Gecko/20100101 Firefox/124.0" version="24.3.1" etag="SXOsEESyqj9rF-6IUHWy" type="github">
  <diagram name="Page-1" id="Veg5KCtZFbtP0sc2p3Wb">
    <mxGraphModel>
      <root>
        <mxCell id="0" />
        <mxCell id="1" parent="0" />
      </root>
    </mxGraphModel>
  </diagram>
</mxfile>
